<svg width="27" height="28" viewBox="0 0 27 28" fill="none" xmlns="http://www.w3.org/2000/svg">
<path d="M1.5 1.5H3.675C5.025 1.5 6.0875 2.6625 5.975 4L4.9375 16.45C4.89699 16.9323 4.95711 17.4178 5.11404 17.8757C5.27098 18.3336 5.52131 18.7539 5.84917 19.1099C6.17704 19.466 6.57529 19.7501 7.01869 19.9442C7.46209 20.1383 7.94098 20.2382 8.425 20.2375H21.7375C23.5375 20.2375 25.1125 18.7625 25.25 16.975L25.925 7.6C26.075 5.525 24.5 3.8375 22.4125 3.8375H6.275M10.25 9H25.25M19.3125 26.5C19.7269 26.5 20.1243 26.3354 20.4174 26.0424C20.7104 25.7493 20.875 25.3519 20.875 24.9375C20.875 24.5231 20.7104 24.1257 20.4174 23.8326C20.1243 23.5396 19.7269 23.375 19.3125 23.375C18.8981 23.375 18.5007 23.5396 18.2076 23.8326C17.9146 24.1257 17.75 24.5231 17.75 24.9375C17.75 25.3519 17.9146 25.7493 18.2076 26.0424C18.5007 26.3354 18.8981 26.5 19.3125 26.5ZM9.3125 26.5C9.7269 26.5 10.1243 26.3354 10.4174 26.0424C10.7104 25.7493 10.875 25.3519 10.875 24.9375C10.875 24.5231 10.7104 24.1257 10.4174 23.8326C10.1243 23.5396 9.7269 23.375 9.3125 23.375C8.8981 23.375 8.50067 23.5396 8.20765 23.8326C7.91462 24.1257 7.75 24.5231 7.75 24.9375C7.75 25.3519 7.91462 25.7493 8.20765 26.0424C8.50067 26.3354 8.8981 26.5 9.3125 26.5Z" stroke="#171717" stroke-width="1.5" stroke-miterlimit="10" stroke-linecap="round" stroke-linejoin="round"/>
</svg>
