<svg width="10" height="143" viewBox="0 0 10 143" fill="none" xmlns="http://www.w3.org/2000/svg">
<path d="M3.27 19L5.76 15.805L3.495 12.76H4.965L6.48 15.025L8.055 12.76H9.33L7.05 15.745L9.465 19H8.01L6.315 16.495L4.605 19H3.27ZM3.27 39L5.76 35.805L3.495 32.76H4.965L6.48 35.025L8.055 32.76H9.33L7.05 35.745L9.465 39H8.01L6.315 36.495L4.605 39H3.27ZM3.27 59L5.76 55.805L3.495 52.76H4.965L6.48 55.025L8.055 52.76H9.33L7.05 55.745L9.465 59H8.01L6.315 56.495L4.605 59H3.27ZM3.27 79L5.76 75.805L3.495 72.76H4.965L6.48 75.025L8.055 72.76H9.33L7.05 75.745L9.465 79H8.01L6.315 76.495L4.605 79H3.27ZM3.27 99L5.76 95.805L3.495 92.76H4.965L6.48 95.025L8.055 92.76H9.33L7.05 95.745L9.465 99H8.01L6.315 96.495L4.605 99H3.27ZM3.27 119L5.76 115.805L3.495 112.76H4.965L6.48 115.025L8.055 112.76H9.33L7.05 115.745L9.465 119H8.01L6.315 116.495L4.605 119H3.27ZM3.27 139L5.76 135.805L3.495 132.76H4.965L6.48 135.025L8.055 132.76H9.33L7.05 135.745L9.465 139H8.01L6.315 136.495L4.605 139H3.27Z" fill="#F23F3F"/>
<path d="M0.27 16L2.76 12.805L0.495 9.76H1.965L3.48 12.025L5.055 9.76H6.33L4.05 12.745L6.465 16H5.01L3.315 13.495L1.605 16H0.27ZM0.27 36L2.76 32.805L0.495 29.76H1.965L3.48 32.025L5.055 29.76H6.33L4.05 32.745L6.465 36H5.01L3.315 33.495L1.605 36H0.27ZM0.27 56L2.76 52.805L0.495 49.76H1.965L3.48 52.025L5.055 49.76H6.33L4.05 52.745L6.465 56H5.01L3.315 53.495L1.605 56H0.27ZM0.27 76L2.76 72.805L0.495 69.76H1.965L3.48 72.025L5.055 69.76H6.33L4.05 72.745L6.465 76H5.01L3.315 73.495L1.605 76H0.27ZM0.27 96L2.76 92.805L0.495 89.76H1.965L3.48 92.025L5.055 89.76H6.33L4.05 92.745L6.465 96H5.01L3.315 93.495L1.605 96H0.27ZM0.27 116L2.76 112.805L0.495 109.76H1.965L3.48 112.025L5.055 109.76H6.33L4.05 112.745L6.465 116H5.01L3.315 113.495L1.605 116H0.27ZM0.27 136L2.76 132.805L0.495 129.76H1.965L3.48 132.025L5.055 129.76H6.33L4.05 132.745L6.465 136H5.01L3.315 133.495L1.605 136H0.27Z" fill="black"/>
</svg>
